<svg enable-background="new -39 182.4 203.8 47.6" height="47.6" viewBox="-39 182.4 203.8 47.6" width="203.8" xmlns="http://www.w3.org/2000/svg"><g fill="#00ff7f" stroke="#00ff7f" stroke-miterlimit="10" stroke-width=".25"><path d="m-129.3-370h-235.7c-1.1 0-2 .9-2 2s.9 2 2 2h235.6c1.1 0 2-.9 2-2s-.8-2-1.9-2" transform="matrix(.4091928224 0 0 -.4091928224 113.41973319338 76.397816315)"/><path d="m29-370-223.8.1c-1.1 0-2 .9-2 2s.9 2 2 2l223.8-.1c1.1 0 2-.9 2-2s-.9-2-2-2" transform="matrix(.4091928224 0 0 -.4091928224 148.74498642852 76.39940987007)"/><path d="m-121.5-370h-3.1c-1.1 0-2 .9-2 2s.9 2 2 2h3.1c1.1 0 2-.9 2-2s-.9-2-2-2" transform="matrix(.4091928224 0 0 -.4091928224 115.16940022403 76.397816315)"/><path d="m-129.3-304.6h-235.7c-1.1 0-2 .9-2 2s.9 2 2 2h235.6c1.1 0 2-.9 2-2s-.8-2-1.9-2" transform="matrix(.4091928224 0 0 -.4091928224 113.41973319338 61.82032310651)"/><path d="m29-304.6-223.8.1c-1.1 0-2 .9-2 2s.9 2 2 2l223.8-.1c1.1 0 2-.9 2-2s-.9-2-2-2" transform="matrix(.4091928224 0 0 -.4091928224 148.74498642852 61.82191666158)"/><path d="m-121.5-304.6h-3.1c-1.1 0-2 .9-2 2s.9 2 2 2h3.1c1.1 0 2-.9 2-2s-.9-2-2-2" transform="matrix(.4091928224 0 0 -.4091928224 115.16940022403 61.82032310651)"/></g><g transform="translate(-.073522 -97.490435)"><path d="m-17.1 317.6c-.4 0-.6-.2-.8-.4l-8.2-12-8.3 12c-.1.1-.4.2-.7.2-.5 0-1-.4-1-1v-26.1c0-.5.4-1 1-1 .5 0 1 .4 1 1v12.1h2.3v-12.1c0-.5.4-1 1-1s1 .4 1 1v12.1h3.5l8.7-12.7c.2-.1.5-.3.8-.3.2 0 .3.1.5.2.3.3.4.4.4.7.1.3 0 .5-.2.7l-8.7 12.5 8.7 12.5c.1.2.3.3 0 .7 0 .3-.1.5-.3.7-.2 0-.2 0-.3 0-.2.1-.3.2-.4.2zm-16.8-4 6.3-9.2h-6.3z"/><path d="m-13.2 317.3c-.5 0-.8-.2-.9-.6l-.1-.2v-26c0-.5.4-1 1-1h18c.5 0 1 .4 1 1 0 .5-.4 1-1 1h-15.8l11.3 11.3c.2.2.4.4.4.7 0 .4-.1.6-.3.8l-11.4 11.4h15.8c.5 0 .9.4 1 .7 0 .5-.4.9-1 .9zm.9-2.9 2.3-2.3v-17.1l-2.3-2.2zm4.1-4.1 5.8-5.9h-5.8zm0-7.7h5.8l-5.8-5.8z"/><path d="m15.4 317.5c-.5 0-1-.4-1-1v-12.8l-6.3-12.9c-.2-.5 0-1 .4-1.2.2-.1.3-.1.4-.1.3 0 .6.2.8.5l6.5 12.9c.1.2.2.3.1.6v12.9c.1.6-.4 1.1-.9 1.1z"/><path d="m19.5 317.6c-.5 0-1-.4-1-1v-12.8l-6.3-12.8c-.2-.5 0-1 .4-1.2.2-.1.3-.1.4-.1.3 0 .6.2.8.5l5.5 11.3 5.6-11.4c.1-.4.5-.5.8-.5.2 0 .3 0 .4.1.4.2.6.7.5 1.4l-6.3 12.8v12.9c.2.3-.3.8-.8.8z"/><path d="m41 317.4c-1.5 0-2.7-.2-3.8-.7h-.1-.1c-.2.1-.4.2-.6.2-3.8 0-5.8-1.8-6.5-2.6-1.3-1.3-2.1-3.1-2.1-4.7v-12.4c0-1.6.8-3.4 2.1-4.7.9-1 2.8-2.6 6.5-2.6l.2.1c.2 0 .3.1.4.2l.1.1h.1c1.1-.5 2.4-.7 3.8-.7 3.7 0 5.8 1.5 7 2.8 1.4 1.4 2.2 3.2 2.2 5 0 .2 0 .3-.1.4l-4 5.8 3.8 5.6c.3.2.4.5.4.6 0 1.7-.8 3.6-2.2 5-1.9 1.8-4.2 2.7-7 2.7h-.1zm-2.8-2.2.2.1c.8.3 1.7.4 2.7.4 2.4 0 4.3-.7 5.7-2.1.5-.4 1-1.1 1.3-1.9 0-.2.1-.4.1-.5.1-.3.2-.7.2-1l-3.3-4.8zm-4.4-22.9c-1.2.4-2 1.1-2.5 1.5-1 1.1-1.5 2.4-1.5 3.5v12.4c0 1.1.6 2.4 1.5 3.5.5.5 1.2 1.1 2.5 1.5l.1-.2c-1.2-1.3-2-3.1-2-4.8v-12.4c0-1.6.7-3.4 2-4.8l.4-.4zm2.6.4c-.1.1-.3.2-.4.3-.2.2-.4.3-.5.5-.6.6-1 1.2-1.3 1.9-.3.6-.4 1.2-.4 1.9v12.4c0 .6.2 1.2.5 1.9.2.7.6 1.3 1.2 1.9.2.2.5.6.9.8l.1.1 7.4-10.9-7.5-10.9zm4.7-1.3c-1.2 0-2 .1-2.7.4l-.2.1 6.8 10 3.4-4.8v-.1c-.1-.5-.2-1-.4-1.5s-.6-1.2-1.2-1.9-2.3-2.2-5.7-2.2z"/><path d="m77.7 317.5c-.2 0-.4 0-.5-.1l-12.7-6.7-12.1 6.7c-.3.1-.4.1-.5.1h-.2l-.1-.1s-.1 0-.1-.1c-.1-.1-.3-.2-.3-.3l-.1-.2c-.1-.2-.1-.5 0-.7l7.7-19.2c.2-.2.5-.5.9-.5.1 0 .2 0 .3.1.3.1.5.3.6.5s.1.4 0 .7l-2.9 7.2 2.2 1.1 6.5-16c0-.1 0-.1.1-.2.3-.2.4-.3.7-.3 0 0 .6 0 .9.7l10.5 26c0 .1.1.2.1.3s.1.3.2.5c-.1.2-.3.3-.4.4-.1 0-.1.1-.1.1l-.1.1h-.6zm-11.5-8 9.5 5-3.4-8.4zm-12.7 4.9 8.8-4.8-5.6-3zm7.7-7.5 3.1 1.7 7.3-4.1-4.7-11.5z"/><path d="m81 317.5c-.3 0-.5-.1-.7-.3-.3-.2-.3-.5-.3-.8v-25.7c0-.2 0-.5.2-.7v-.1c.2-.1.4-.2.7-.2h.3l12.9 12.9h.1c.9-.4 1.6-1 2-1.4.5-.5.9-1.1 1.2-1.9.2-.5.4-1 .4-1.6v-.2c0-.6-.2-1.2-.4-1.8-.4-.8-.8-1.5-1.2-2-1.3-1.4-3.2-2.1-5.6-2.1h-5.8c-.5 0-1-.4-1-1 0-.5.4-1 1-1h5.8c2.8 0 5.3 1 7 2.8 1.2 1.3 2 3.1 2.1 4.7v.1c.1.1.1.2.3.3 0 1.7-.9 3.6-2.2 4.9-1.8 1.8-4.2 2.8-7 2.8h-4.8v7.6c0 .1 0 .2-.1.3-.1.2-.2.4-.3.4l-3.7 3.5c-.3.2-.5.5-.9.5zm.8-3.1 2.2-2.1v-17.3l-2.2-2.2zm4.1-11.1h4.9.5c.2 0 .4-.1.6-.1h.3l-6.4-6.4v6.5z"/><path d="m110.4 317.5c-3.7 0-5.8-1.5-7-2.8-1.4-1.4-2.2-3.2-2.2-5 0-.5.4-1 1-1s1 .4 1 1 .1 1.2.4 1.9.7 1.3 1.2 1.8c.9 1 2.6 2.1 5.6 2.1 1.5 0 2.8-.3 3.9-.8.7-.3 1.2-.6 1.6-1l.1-.1-14.3-10.8-.1-.1c-.2-.2-.3-.4-.3-.6 0-1.2.4-2.4 1-3.4l.1-.1-.7-.6-.1-.1-.1-.2v-.1c0-.1-.1-.2-.1-.3 0-1.7.8-3.6 2.2-5 1.9-1.8 4.2-2.7 7-2.7 2.9 0 5.2.9 7 2.7 1.4 1.4 2.2 3.2 2.2 5 0 .5-.4 1-1 1s-1-.4-1-1-.2-1.2-.4-1.8c-.3-.7-.7-1.3-1.2-1.9-.9-1-2.6-2.2-5.7-2.2-2.2 0-3.9.6-5.3 1.8l-.1.1 14.1 10.7.5.5h-.2v.4c0 1.2-.4 2.4-1 3.4l-.1.1.9.7.1.2c.1.2.1.3.1.4 0 1.4-.6 3-1.6 4.3-.9 1.1-1.9 1.9-2.9 2.4-1.2.7-2.7 1.1-4.6 1.1zm-6.7-17.7c-.2.6-.4 1.2-.5 1.7v.1l13.9 10.5.1-.1c.3-.5.5-1.1.6-1.7v-.1l-14-10.6zm.6-2.1 12.8 9.9.1-.2c.3-.6.5-1.2.6-1.8v-.1l-13.8-10.6-.1.2c-.1.1-.1.2-.1.3s0 .1-.1.2c-.2.5-.3.9-.4 1.3v.1l.1.1.7.5h.2z"/><path d="m130.2 317.5c-3.6 0-5.7-1.5-6.9-2.8-1.4-1.4-2.2-3.2-2.2-5 0-.5.4-1 1-1s1 .4 1 1 .1 1.2.4 1.9.7 1.3 1.2 1.8c.9 1 2.6 2.1 5.6 2.1 1.5 0 2.8-.3 3.9-.8.7-.3 1.2-.6 1.6-1l.1-.1-14.3-10.8-.1-.1c-.2-.2-.3-.4-.3-.6 0-1.2.4-2.4 1-3.4l.1-.1-.7-.6-.1-.1-.1-.2v-.1c0-.1-.1-.2-.1-.3 0-1.7.8-3.6 2.2-5 1.9-1.8 4.2-2.7 7-2.7 2.9 0 5.2.9 7 2.7 1.4 1.4 2.2 3.2 2.2 5 0 .5-.4 1-1 1s-1-.4-1-1-.2-1.2-.4-1.8c-.3-.7-.7-1.3-1.2-2-.9-1-2.6-2.2-5.7-2.2-2.2 0-3.9.6-5.3 1.8l-.1.1 14.1 10.7.5.5h-.3v.4c0 1.2-.4 2.4-1 3.4l-.1.1.9.6v.1c.1.3.1.4.1.5 0 1.4-.6 3-1.6 4.3-.9 1.1-1.9 1.9-2.9 2.4-1.1.9-2.6 1.3-4.5 1.3zm-6.5-17.7c-.2.6-.4 1.2-.5 1.7v.1l13.9 10.5.1-.1c.3-.5.5-1.1.6-1.7v-.1l-14-10.6zm.6-2.1 12.8 9.9.1-.2c.3-.6.5-1.2.6-1.8v-.1l-13.8-10.6-.1.2c-.1.1-.1.2-.1.3s0 .1-.1.2c-.2.5-.3.9-.4 1.3v.1l.1.1.7.5h.2z"/><path d="m150.1 317.6c-3.6 0-5.7-1.5-6.9-2.8-1.4-1.4-2.2-3.2-2.2-5 0-.5.4-1 1-1s1 .4 1 1 .1 1.2.4 1.9.7 1.3 1.2 1.8c.9 1 2.6 2.1 5.6 2.1 1.5 0 2.8-.3 3.9-.8.7-.3 1.2-.6 1.6-1l.1-.1-14.3-10.9c-.2-.3-.2-.4-.2-.7 0-1.2.4-2.4 1-3.4l.1-.1-.7-.6-.1-.1-.1-.2v-.1c0-.1-.1-.2-.1-.3 0-1.7.8-3.6 2.2-5 1.9-1.8 4.2-2.7 7-2.7 2.9 0 5.2.9 7 2.7 1.4 1.4 2.2 3.2 2.2 5 0 .5-.4 1-1 1s-1-.4-1-1-.2-1.2-.4-1.8c-.3-.7-.7-1.3-1.2-2-.9-1-2.6-2.2-5.7-2.2-2.2 0-3.9.6-5.3 1.8l-.1.1 14.1 10.7.5.5h-.4v.5c0 1.2-.4 2.4-1 3.4l-.1.1.9.6v.1c.1.3.1.4.1.5 0 1.4-.6 3-1.6 4.3-.9 1.1-1.9 1.9-2.9 2.4-1.2.9-2.7 1.3-4.6 1.3zm-6.4-17.8c-.2.6-.4 1.2-.5 1.7v.1l13.9 10.5.1-.1c.3-.5.5-1.1.6-1.7v-.1l-14-10.6zm.7-2.1 12.7 9.8.1-.2c.3-.6.5-1.2.6-1.8v-.1l-13.8-10.5-.1.2c-.1.1-.1.2-.1.3s0 .1-.1.2c-.2.5-.3.9-.4 1.3v.1l.1.1.7.5h.2z"/></g></svg>