<?xml version="1.0" encoding="utf-8"?>
<!-- Generator: Adobe Illustrator 24.0.0, SVG Export Plug-In . SVG Version: 6.00 Build 0)  -->
<svg version="1.1" id="Layer_1" xmlns="http://www.w3.org/2000/svg" xmlns:xlink="http://www.w3.org/1999/xlink" x="0px" y="0px"
	 viewBox="0 0 89.2 43.1" style="enable-background:new 0 0 89.2 43.1;" xml:space="preserve">
<style type="text/css">
	.st0{fill:#00FF7F;stroke:#00FF7F;stroke-width:4.186043e-02;stroke-miterlimit:1.6744;}
	.st1{fill:#CBD5E1;}
</style>
<title>keycapsss-logo-small-dark</title>
<path class="st0" d="M38.3,43H0.8C0.4,43,0,42.7,0,42.2s0.4-0.8,0.8-0.8c0,0,0,0,0,0h37.4c0.5,0,0.8,0.4,0.8,0.8
	C39.1,42.6,38.7,43,38.3,43C38.3,43,38.3,43,38.3,43"/>
<path class="st0" d="M88.4,43L88.4,43l-41.6,0c-0.5,0-0.8-0.4-0.8-0.8c0-0.5,0.4-0.8,0.8-0.8h41.6c0.4,0,0.8,0.4,0.8,0.8
	C89.2,42.6,88.8,43,88.4,43"/>
<path class="st0" d="M43.2,43h-1.3c-0.5,0-0.8-0.4-0.8-0.8c0-0.5,0.4-0.8,0.8-0.8h1.3c0.5,0,0.8,0.4,0.8,0.8S43.7,43,43.2,43
	C43.2,43,43.2,43,43.2,43"/>
<path class="st0" d="M38.3,1.6H0.8C0.4,1.6,0,1.3,0,0.8C0,0.4,0.4,0,0.8,0h37.4c0.4,0,0.8,0.4,0.8,0.8C39.1,1.3,38.7,1.6,38.3,1.6
	C38.3,1.6,38.3,1.6,38.3,1.6"/>
<path class="st0" d="M88.4,1.6L88.4,1.6H46.8c-0.5,0-0.8-0.4-0.8-0.8c0-0.4,0.4-0.8,0.8-0.8h41.6c0.5,0,0.8,0.4,0.8,0.8
	C89.2,1.3,88.8,1.7,88.4,1.6"/>
<path class="st0" d="M43.2,1.6h-1.3c-0.5,0-0.8-0.4-0.8-0.8c0-0.4,0.4-0.8,0.8-0.8h1.3C43.7,0,44,0.4,44,0.8
	C44,1.3,43.7,1.6,43.2,1.6"/>
<path class="st1" d="M20.6,35.4c-0.3,0-0.6-0.1-0.8-0.4l-8.2-12L3.3,35c-0.2,0.1-0.5,0.2-0.7,0.2c-0.6,0-1-0.4-1-1V8.1
	c0-0.6,0.4-1,1-1s1,0.4,1,1v12.1h2.3V8.1c0-0.6,0.4-1,1-1c0.5,0,1,0.4,1,0.9c0,0,0,0.1,0,0.1v12.1h3.5l8.7-12.7
	c0.2-0.2,0.5-0.3,0.8-0.3c0.2,0,0.3,0.1,0.5,0.2c0.3,0.3,0.4,0.4,0.4,0.7c0.1,0.3,0,0.5-0.2,0.7l-8.7,12.5l8.7,12.5
	c0.1,0.2,0.3,0.3,0,0.7c0,0.3-0.1,0.5-0.3,0.7H21C20.8,35.3,20.7,35.4,20.6,35.4z M3.8,31.4l6.3-9.2H3.8V31.4z"/>
<path class="st1" d="M31.1,35.3c-0.6,0-1-0.4-1-1V21.5L23.8,8.6c-0.2-0.4,0-1,0.4-1.2c0.1-0.1,0.3-0.1,0.4-0.1
	c0.3,0,0.6,0.2,0.8,0.5l6.5,12.9c0.1,0.2,0.2,0.4,0.1,0.6v12.9C32.1,34.7,31.7,35.2,31.1,35.3C31.1,35.3,31.1,35.3,31.1,35.3z"/>
<path class="st1" d="M35.2,35.4c-0.6,0-1-0.4-1-1V21.6L27.9,8.8c-0.2-0.4,0-1,0.4-1.2c0.1-0.1,0.3-0.1,0.4-0.1
	c0.3,0,0.6,0.2,0.8,0.5L35,19.3l5.6-11.4c0.1-0.3,0.4-0.5,0.8-0.5c0.2,0,0.3,0,0.4,0.1c0.4,0.2,0.6,0.7,0.5,1.4L36,21.6v12.9
	C36.2,34.9,35.7,35.4,35.2,35.4z"/>
<path class="st1" d="M56.7,35.2c-1.3,0-2.6-0.2-3.8-0.7h-0.2c-0.2,0.1-0.4,0.2-0.6,0.2c-2.4,0.1-4.8-0.8-6.5-2.6
	c-1.3-1.2-2-2.9-2.1-4.7V15c0.1-1.8,0.8-3.5,2.1-4.7c1.7-1.8,4.1-2.7,6.5-2.6l0.2,0.1c0.2,0,0.3,0.1,0.4,0.2l0.1,0.1h0.1
	c1.2-0.5,2.5-0.7,3.8-0.7c2.6-0.1,5.2,0.9,7,2.8c1.4,1.3,2.2,3.1,2.2,5c0,0.2,0,0.3-0.1,0.4l-4,5.8l3.8,5.6c0.2,0.1,0.4,0.4,0.4,0.6
	c-0.1,1.9-0.9,3.7-2.2,5c-1.9,1.8-4.4,2.8-7,2.7C56.8,35.3,56.7,35.2,56.7,35.2z M53.9,33l0.2,0.1c0.9,0.3,1.8,0.4,2.7,0.4
	c2.1,0.1,4.2-0.6,5.7-2.1c0.6-0.5,1-1.2,1.3-1.9c0-0.2,0.1-0.3,0.1-0.5c0.1-0.3,0.2-0.7,0.2-1l-3.3-4.8L53.9,33z M49.5,10.1
	c-0.9,0.3-1.8,0.8-2.5,1.5c-0.9,0.9-1.4,2.2-1.5,3.5v12.4c0.1,1.3,0.6,2.5,1.5,3.5c0.7,0.7,1.5,1.2,2.5,1.5l0.1-0.2
	c-1.2-1.3-1.9-3-2-4.8V15.1c0.1-1.8,0.8-3.5,2-4.8L50,9.9L49.5,10.1z M52.1,10.5c-0.1,0.1-0.3,0.2-0.4,0.3s-0.4,0.3-0.5,0.5
	c-0.6,0.5-1,1.2-1.3,1.9c-0.3,0.6-0.4,1.2-0.4,1.9v12.4c0,0.7,0.2,1.3,0.5,1.9c0.2,0.7,0.6,1.4,1.2,1.9c0.3,0.3,0.6,0.6,0.9,0.8
	l0.1,0.1l7.4-10.9l-7.5-10.9V10.5z M56.8,9.2c-0.9-0.1-1.8,0.1-2.7,0.4l-0.2,0.1l6.8,10l3.4-4.8v-0.1c-0.1-0.5-0.2-1-0.4-1.5
	c-0.3-0.7-0.7-1.3-1.2-1.9C61.9,10.6,60.2,9.2,56.8,9.2L56.8,9.2z"/>
<path class="st1" d="M77.8,35.4c-2.6,0.1-5.1-0.9-6.9-2.8c-1.4-1.3-2.2-3.1-2.2-5c0-0.6,0.4-1,1-1c0.5,0,1,0.4,1,0.9
	c0,0,0,0.1,0,0.1c0,0.7,0.1,1.3,0.4,1.9c0.3,0.7,0.7,1.3,1.2,1.8c1.5,1.5,3.5,2.2,5.6,2.1c1.3,0,2.7-0.3,3.9-0.8
	c0.6-0.2,1.1-0.6,1.6-1l0.1-0.1L69.2,20.6c-0.2-0.2-0.2-0.4-0.2-0.7c0-1.2,0.4-2.4,1-3.4l0.1-0.1l-0.7-0.6l-0.1-0.1l-0.1-0.2l0,0
	v-0.1c0-0.1-0.1-0.2-0.1-0.3c0.1-1.9,0.9-3.7,2.2-5c1.9-1.8,4.4-2.8,7-2.7c2.6-0.1,5.1,0.9,7,2.7c1.4,1.3,2.2,3.1,2.2,5
	c0,0.6-0.4,1-1,1c-0.5,0-1-0.4-1-0.9c0,0,0-0.1,0-0.1c0-0.6-0.2-1.2-0.4-1.8c-0.3-0.7-0.7-1.4-1.2-2c-1.5-1.5-3.6-2.3-5.7-2.2
	c-1.9-0.1-3.8,0.6-5.3,1.8L72.8,11l14.1,10.7c0.1,0.3,0.1,0.7,0.1,1c0,1.2-0.4,2.4-1,3.4l-0.1,0.1l0.9,0.6v0.1
	c0.1,0.2,0.1,0.3,0.1,0.5c-0.1,1.6-0.6,3.1-1.6,4.3c-0.8,1-1.8,1.8-2.9,2.4C81,35,79.4,35.5,77.8,35.4z M71.4,17.6
	c-0.2,0.6-0.4,1.1-0.5,1.7v0.1l13.9,10.5l0.1-0.1c0.3-0.5,0.5-1.1,0.6-1.7V28l-14-10.6L71.4,17.6z M72.1,15.5l12.7,9.8l0.1-0.2
	c0.3-0.6,0.5-1.2,0.6-1.8v-0.1L71.7,12.6l-0.1,0.2c-0.1,0.1-0.1,0.2-0.1,0.3c0,0.1,0,0.1-0.1,0.2c-0.2,0.4-0.3,0.9-0.4,1.3v0.1
	l0.1,0.1l0.7,0.5H72L72.1,15.5z"/>
</svg>
