<?xml version="1.0" encoding="utf-8"?>
<!-- Generator: Adobe Illustrator 24.0.0, SVG Export Plug-In . SVG Version: 6.00 Build 0)  -->
<svg version="1.1" id="Layer_1" xmlns="http://www.w3.org/2000/svg" xmlns:xlink="http://www.w3.org/1999/xlink" x="0px" y="0px"
	 viewBox="0 0 198.3 43.1" style="enable-background:new 0 0 198.3 43.1;" xml:space="preserve">
<style type="text/css">
	.st0{fill:#00FF7F;stroke:#00FF7F;stroke-width:0.1023;stroke-miterlimit:4.0919;}
	.st1{fill:#CBD5E1;}
</style>
<title>keycapsss-logo-dark</title>
<path class="st0" d="M97.3,43.1H0.9c-0.5,0-0.8-0.4-0.8-0.8c0-0.5,0.4-0.8,0.8-0.8h96.4c0.5,0,0.8,0.4,0.8,0.8
	C98.1,42.7,97.8,43.1,97.3,43.1L97.3,43.1"/>
<path class="st0" d="M197.4,43.1h-91.6c-0.5,0-0.8-0.4-0.8-0.8c0-0.5,0.4-0.8,0.8-0.8h91.6c0.5,0,0.8,0.4,0.8,0.8
	C198.2,42.7,197.9,43.1,197.4,43.1"/>
<path class="st0" d="M102.3,43.1H101c-0.5,0-0.8-0.4-0.8-0.8c0-0.5,0.4-0.8,0.8-0.8h1.3c0.5,0,0.8,0.4,0.8,0.8
	C103.1,42.7,102.7,43.1,102.3,43.1"/>
<path class="st0" d="M97.3,1.7H0.9c-0.5,0-0.8-0.4-0.8-0.8c0-0.5,0.4-0.8,0.8-0.8h96.4c0.5,0,0.8,0.4,0.8,0.8
	C98.1,1.3,97.8,1.7,97.3,1.7L97.3,1.7"/>
<path class="st0" d="M197.4,1.7l-91.6-0.1c-0.5,0-0.8-0.4-0.8-0.8c0-0.5,0.4-0.8,0.8-0.8h91.6c0.4,0,0.8,0.4,0.8,0.8
	C198.2,1.3,197.8,1.7,197.4,1.7L197.4,1.7"/>
<path class="st0" d="M102.3,1.7H101c-0.5,0-0.8-0.4-0.8-0.8c0-0.5,0.4-0.8,0.8-0.8h1.3c0.5,0,0.8,0.4,0.8,0.8S102.7,1.7,102.3,1.7
	L102.3,1.7"/>
<path class="st1" d="M19.6,35.4c-0.3,0-0.6-0.1-0.8-0.4l-8.2-12L2.3,35c-0.2,0.1-0.5,0.2-0.7,0.2c-0.6,0-1-0.4-1-1V8.1
	c0-0.6,0.4-1,1-1s1,0.4,1,1v12.1h2.3V8.1c0-0.6,0.4-1,1-1c0.5,0,1,0.4,1,0.9v0.1v12.1h3.5l8.7-12.7c0.2-0.2,0.5-0.3,0.8-0.3
	c0.2,0,0.3,0.1,0.5,0.2c0.3,0.3,0.4,0.4,0.4,0.7c0.1,0.3,0,0.5-0.2,0.7l-8.7,12.5l8.7,12.5c0.1,0.2,0.3,0.3,0,0.7
	c0,0.3-0.1,0.5-0.3,0.7H20C19.8,35.3,19.7,35.4,19.6,35.4z M2.8,31.4l6.3-9.2H2.8V31.4z"/>
<path class="st1" d="M23.5,35.1c-0.4,0.1-0.8-0.2-0.9-0.6l-0.1-0.2v-26c0-0.6,0.4-1,1-1h18c0.6,0,1,0.4,1,1c0,0.6-0.4,1-1,1H25.7
	L37,20.6c0.2,0.2,0.4,0.4,0.4,0.7c0,0.3-0.1,0.6-0.3,0.8L25.7,33.5h15.8c0.4,0,0.8,0.3,1,0.7c0,0.5-0.4,0.9-0.9,0.9c0,0,0,0-0.1,0
	C41.5,35.1,23.5,35.1,23.5,35.1z M24.4,32.2l2.3-2.3V12.8l-2.3-2.2V32.2z M28.5,28.1l5.8-5.9h-5.8V28.1z M28.5,20.4h5.8l-5.8-5.8
	V20.4z"/>
<path class="st1" d="M52.1,35.3c-0.6,0-1-0.4-1-1V21.5L44.8,8.6c-0.2-0.4,0-1,0.4-1.2c0.1-0.1,0.3-0.1,0.4-0.1
	c0.3,0,0.6,0.2,0.8,0.5l6.5,12.9c0.1,0.2,0.2,0.4,0.1,0.6v12.9C53.1,34.7,52.7,35.2,52.1,35.3C52.2,35.3,52.1,35.3,52.1,35.3z"/>
<path class="st1" d="M56.2,35.4c-0.6,0-1-0.4-1-1V21.6L48.9,8.8c-0.2-0.4,0-1,0.4-1.2c0.1-0.1,0.3-0.1,0.4-0.1
	c0.3,0,0.6,0.2,0.8,0.5L56,19.3l5.6-11.4c0.1-0.3,0.4-0.5,0.8-0.5c0.2,0,0.3,0,0.4,0.1c0.4,0.2,0.6,0.7,0.5,1.4L57,21.7v12.9
	C57.2,34.9,56.7,35.4,56.2,35.4L56.2,35.4z"/>
<path class="st1" d="M77.7,35.2c-1.3,0-2.6-0.2-3.8-0.7h-0.2c-0.2,0.1-0.4,0.2-0.6,0.2c-2.4,0.1-4.8-0.8-6.5-2.6
	c-1.3-1.2-2-2.9-2.1-4.7V15c0.1-1.8,0.8-3.5,2.1-4.7c1.7-1.8,4.1-2.7,6.5-2.6l0.2,0.1c0.2,0,0.3,0.1,0.4,0.2l0.1,0.1h0.1
	c1.2-0.5,2.5-0.7,3.8-0.7c2.6-0.1,5.2,0.9,7,2.8c1.4,1.3,2.2,3.1,2.2,5c0,0.2,0,0.3-0.1,0.4l-4,5.8l3.8,5.6c0.2,0.1,0.4,0.4,0.4,0.6
	c-0.1,1.9-0.9,3.7-2.2,5c-1.9,1.8-4.4,2.8-7,2.7h-0.1L77.7,35.2z M74.9,33l0.2,0.1c2.9,0.9,6.1,0.3,8.4-1.7c0.6-0.5,1-1.2,1.3-1.9
	c0-0.2,0.1-0.3,0.1-0.5c0.1-0.3,0.2-0.7,0.2-1l-3.3-4.8L74.9,33z M70.5,10.1c-0.9,0.3-1.8,0.8-2.5,1.5c-0.9,0.9-1.4,2.2-1.5,3.5
	v12.4c0.1,1.3,0.6,2.5,1.5,3.5c0.7,0.7,1.5,1.2,2.5,1.5l0.1-0.2c-1.2-1.3-1.9-3-2-4.8V15.1c0.1-1.8,0.8-3.5,2-4.8L71,9.9L70.5,10.1z
	 M73.1,10.5c-0.1,0.1-0.3,0.2-0.4,0.3s-0.4,0.3-0.5,0.5c-0.6,0.5-1,1.2-1.3,1.9c-0.3,0.6-0.4,1.2-0.4,1.9v12.4
	c0,0.7,0.2,1.3,0.5,1.9c0.2,0.7,0.6,1.4,1.2,1.9c0.3,0.3,0.6,0.6,0.9,0.8l0.1,0.1l7.4-10.9l-7.5-10.9L73.1,10.5z M77.8,9.2
	c-0.9-0.1-1.8,0.1-2.7,0.4l-0.2,0.1l6.8,10l3.4-4.8v-0.1c-0.1-0.5-0.2-1-0.4-1.5c-0.3-0.7-0.7-1.3-1.2-1.9
	C82.9,10.7,81.2,9.2,77.8,9.2L77.8,9.2z"/>
<path class="st1" d="M114.4,35.3c-0.2,0-0.4,0-0.5-0.1l-12.7-6.7l-12.1,6.7c-0.2,0.1-0.3,0.1-0.5,0.1h-0.2l-0.1-0.1
	c-0.1,0-0.1,0-0.1-0.1c-0.1-0.1-0.3-0.2-0.3-0.3l-0.1-0.2c-0.1-0.2-0.1-0.5,0-0.7l7.7-19.2c0.2-0.3,0.5-0.5,0.9-0.5
	c0.1,0,0.2,0,0.3,0.1c0.3,0.1,0.5,0.3,0.6,0.5s0.1,0.5,0,0.7l-2.9,7.2l2.2,1.1l6.5-16c0-0.1,0-0.1,0.1-0.2c0.3-0.2,0.4-0.3,0.7-0.3
	c0.4,0,0.8,0.3,0.9,0.7l10.5,26c0,0.1,0.1,0.2,0.1,0.3c0,0.2,0.1,0.3,0.2,0.5c-0.1,0.2-0.3,0.3-0.4,0.4c-0.1,0-0.1,0-0.1,0.1
	l-0.1,0.1L114.4,35.3L114.4,35.3z M102.9,27.3l9.5,5l-3.4-8.4L102.9,27.3z M90.2,32.2l8.8-4.8l-5.6-3L90.2,32.2z M97.9,24.7l3.1,1.7
	l7.3-4.1l-4.7-11.5L97.9,24.7z"/>
<path class="st1" d="M117.7,35.3c-0.3,0-0.5-0.1-0.7-0.3s-0.4-0.5-0.3-0.8V8.5c0-0.3,0-0.5,0.2-0.7V7.7c0.2-0.1,0.5-0.2,0.7-0.2h0.3
	l12.9,12.9h0.1c0.7-0.3,1.4-0.8,2-1.4c0.5-0.5,0.9-1.2,1.2-1.9c0.2-0.5,0.4-1,0.4-1.6v-0.2c0-0.6-0.2-1.2-0.4-1.8
	c-0.3-0.7-0.7-1.4-1.2-2c-1.5-1.5-3.5-2.2-5.6-2.1h-5.8c-0.6,0-1-0.4-1-1s0.4-1,1-1h5.8c2.6-0.1,5.2,0.9,7,2.8
	c1.2,1.3,1.9,2.9,2.1,4.7V15c0.1,0.1,0.1,0.2,0.3,0.3c-0.1,1.9-0.9,3.6-2.2,4.9c-1.9,1.8-4.4,2.9-7,2.8h-4.8v7.6
	c0,0.1,0,0.2-0.1,0.3c-0.1,0.2-0.2,0.4-0.3,0.4l-3.7,3.5C118.3,35,118.1,35.3,117.7,35.3L117.7,35.3z M118.5,32.2l2.2-2.1V12.8
	l-2.2-2.2V32.2z M122.6,21.1h5.4c0.2,0,0.4-0.1,0.6-0.1h0.3l-6.4-6.4L122.6,21.1L122.6,21.1z"/>
<path class="st1" d="M147.1,35.3c-2.6,0.1-5.2-0.9-7-2.8c-1.4-1.3-2.2-3.1-2.2-5c0-0.6,0.4-1,1-1c0.5,0,1,0.4,1,0.9v0.1
	c0,0.7,0.1,1.3,0.4,1.9c0.3,0.7,0.7,1.3,1.2,1.8c1.5,1.5,3.5,2.2,5.6,2.1c1.3,0,2.7-0.3,3.9-0.8c0.6-0.2,1.1-0.6,1.6-1l0.1-0.1
	l-14.3-10.8l-0.1-0.1c-0.2-0.2-0.3-0.4-0.3-0.6c0-1.2,0.4-2.4,1-3.4l0.1-0.1l-0.7-0.6l-0.1-0.1l-0.1-0.2v-0.1c0-0.1-0.1-0.2-0.1-0.3
	c0.1-1.9,0.9-3.7,2.2-5c1.9-1.8,4.4-2.8,7-2.7c2.6-0.1,5.1,0.9,7,2.7c1.4,1.3,2.2,3.1,2.2,5c0,0.6-0.4,1-1,1c-0.5,0-1-0.4-1-0.9
	v-0.1c0-0.6-0.2-1.2-0.4-1.8c-0.3-0.7-0.7-1.3-1.2-1.9c-1.5-1.5-3.6-2.3-5.7-2.2c-1.9-0.1-3.8,0.6-5.3,1.8l-0.1,0.1l14.1,10.7
	l0.5,0.5h-0.2v0.4c0,1.2-0.4,2.4-1,3.4l-0.1,0.1l0.9,0.7l0.1,0.2c0.1,0.1,0.1,0.3,0.1,0.4c-0.1,1.6-0.6,3.1-1.6,4.3
	c-0.8,1-1.8,1.8-2.9,2.4C150.3,34.9,148.7,35.3,147.1,35.3z M140.4,17.6c-0.2,0.6-0.4,1.1-0.5,1.7v0.1l13.9,10.5l0.1-0.1
	c0.3-0.5,0.5-1.1,0.6-1.7V28l-14-10.6L140.4,17.6z M141,15.5l12.8,9.9l0.1-0.2c0.3-0.6,0.5-1.2,0.6-1.8v-0.1l-13.8-10.6l-0.1,0.2
	c-0.1,0.1-0.1,0.2-0.1,0.3s0,0.1-0.1,0.2c-0.2,0.4-0.3,0.9-0.4,1.3v0.1l0.1,0.1l0.7,0.5h0.2V15.5z"/>
<path class="st1" d="M166.9,35.3c-2.6,0.1-5.1-0.9-6.9-2.8c-1.4-1.3-2.2-3.1-2.2-5c0-0.6,0.4-1,1-1c0.5,0,1,0.4,1,0.9v0.1
	c0,0.7,0.1,1.3,0.4,1.9c0.3,0.7,0.7,1.3,1.2,1.8c1.5,1.5,3.5,2.2,5.6,2.1c1.3,0,2.7-0.3,3.9-0.8c0.6-0.2,1.1-0.6,1.6-1l0.1-0.1
	l-14.3-10.8l-0.1-0.1c-0.2-0.2-0.3-0.4-0.3-0.6c0-1.2,0.4-2.4,1-3.4l0.1-0.1l-0.7-0.6l-0.1-0.1l-0.1-0.2v-0.1c0-0.1-0.1-0.2-0.1-0.3
	c0.1-1.9,0.9-3.7,2.2-5c1.9-1.8,4.4-2.8,7-2.7c2.6-0.1,5.1,0.9,7,2.7c1.4,1.3,2.2,3.1,2.2,5c0,0.6-0.4,1-1,1c-0.5,0-1-0.4-1-0.9
	v-0.1c0-0.6-0.2-1.2-0.4-1.8c-0.3-0.7-0.7-1.4-1.2-2c-1.5-1.5-3.6-2.3-5.7-2.2c-1.9-0.1-3.8,0.6-5.3,1.8l-0.1,0.1l14.1,10.7l0.5,0.5
	H176v0.4c0,1.2-0.4,2.4-1,3.4l-0.1,0.1l0.9,0.6v0.1c0.1,0.2,0.1,0.3,0.1,0.5c-0.1,1.6-0.6,3.1-1.6,4.3c-0.8,1-1.8,1.8-2.9,2.4
	C170.1,34.9,168.5,35.4,166.9,35.3L166.9,35.3z M160.4,17.6c-0.2,0.6-0.4,1.1-0.5,1.7v0.1l13.9,10.5l0.1-0.1
	c0.3-0.5,0.5-1.1,0.6-1.7V28l-14-10.6L160.4,17.6z M161,15.5l12.8,9.9l0.1-0.2c0.3-0.6,0.5-1.2,0.6-1.8v-0.1l-13.8-10.6l-0.1,0.2
	c-0.1,0.1-0.1,0.2-0.1,0.3s0,0.1-0.1,0.2c-0.2,0.4-0.3,0.9-0.4,1.3v0.1l0.1,0.1l0.7,0.5h0.2V15.5z"/>
<path class="st1" d="M186.8,35.4c-2.6,0.1-5.1-0.9-6.9-2.8c-1.4-1.3-2.2-3.1-2.2-5c0-0.6,0.4-1,1-1c0.5,0,1,0.4,1,0.9v0.1
	c0,0.7,0.1,1.3,0.4,1.9c0.3,0.7,0.7,1.3,1.2,1.8c1.5,1.5,3.5,2.2,5.6,2.1c1.3,0,2.7-0.3,3.9-0.8c0.6-0.2,1.1-0.6,1.6-1l0.1-0.1
	l-14.3-10.9c-0.2-0.2-0.2-0.4-0.2-0.7c0-1.2,0.4-2.4,1-3.4l0.1-0.1l-0.7-0.6l-0.1-0.1l-0.1-0.2v-0.1c0-0.1-0.1-0.2-0.1-0.3
	c0.1-1.9,0.9-3.7,2.2-5c1.9-1.8,4.4-2.8,7-2.7c2.6-0.1,5.1,0.9,7,2.7c1.4,1.3,2.2,3.1,2.2,5c0,0.6-0.4,1-1,1c-0.5,0-1-0.4-1-0.9
	v-0.1c0-0.6-0.2-1.2-0.4-1.8c-0.3-0.7-0.7-1.4-1.2-2c-1.5-1.5-3.6-2.3-5.7-2.2c-1.9-0.1-3.8,0.6-5.3,1.8l-0.1,0.1l14.1,10.7l0.5,0.5
	H196v0.5c0,1.2-0.4,2.4-1,3.4l-0.1,0.1l0.9,0.6v0.1c0.1,0.2,0.1,0.3,0.1,0.5c-0.1,1.6-0.6,3.1-1.6,4.3c-0.8,1-1.8,1.8-2.9,2.4
	C190.1,35,188.5,35.5,186.8,35.4L186.8,35.4z M180.4,17.6c-0.2,0.6-0.4,1.1-0.5,1.7v0.1l13.9,10.5l0.1-0.1c0.3-0.5,0.5-1.1,0.6-1.7
	V28l-14-10.6L180.4,17.6z M181.1,15.5l12.7,9.8l0.1-0.2c0.3-0.6,0.5-1.2,0.6-1.8v-0.1l-13.8-10.5l-0.1,0.2c-0.1,0.1-0.1,0.2-0.1,0.3
	s0,0.1-0.1,0.2c-0.2,0.4-0.3,0.9-0.4,1.3v0.1l0.1,0.1l0.7,0.5h0.2L181.1,15.5z"/>
</svg>
