<?xml version="1.0" encoding="utf-8"?>
<!-- Generator: Adobe Illustrator 24.0.0, SVG Export Plug-In . SVG Version: 6.00 Build 0)  -->
<svg version="1.1"
	 id="svg8" xmlns:cc="http://creativecommons.org/ns#" xmlns:dc="http://purl.org/dc/elements/1.1/" xmlns:inkscape="http://www.inkscape.org/namespaces/inkscape" xmlns:rdf="http://www.w3.org/1999/02/22-rdf-syntax-ns#" xmlns:sodipodi="http://sodipodi.sourceforge.net/DTD/sodipodi-0.dtd" xmlns:svg="http://www.w3.org/2000/svg"
	 xmlns="http://www.w3.org/2000/svg" xmlns:xlink="http://www.w3.org/1999/xlink" x="0px" y="0px" viewBox="0 0 93 47.6"
	 style="enable-background:new 0 0 93 47.6;" xml:space="preserve">
<style type="text/css">
	.st0{fill:#00FF7F;stroke:#00FF7F;stroke-width:0.1023;stroke-miterlimit:4.0919;}
</style>
<g id="layer1_1_" transform="translate(-0.07352247,-97.490435)" inkscape:groupmode="layer" inkscape:label="Layer 1">
	<g id="g1363_1_" transform="matrix(1.6599532,0,0,1.6599532,251.7579,-243.88384)">
		<g id="g904_1_" transform="matrix(0.24650865,0,0,-0.24650865,-83.294303,251.67703)">
			<path id="path906_1_" inkscape:connector-curvature="0" class="st0" d="M-180.6,75.8h-91.5c-1.1,0-2,0.9-2,2c0,1.1,0.9,2,2,2
				h91.4c1.1,0,2-0.9,2-2C-178.7,76.7-179.5,75.8-180.6,75.8"/>
		</g>
		<g id="g908_1_" transform="matrix(0.24650865,0,0,-0.24650865,-62.01343,251.67799)">
			<path id="path910_1_" inkscape:connector-curvature="0" class="st0" d="M-144.5,75.8L-144.5,75.8l-101.6,0.1c-1.1,0-2,0.9-2,2
				s0.9,2,2,2l101.6-0.1c1.1,0,2-0.9,2-2S-143.4,75.8-144.5,75.8"/>
		</g>
		<g id="g912_1_" transform="matrix(0.24650865,0,0,-0.24650865,-82.240257,251.67703)">
			<path id="path914_1_" inkscape:connector-curvature="0" class="st0" d="M-172.8,75.8h-3.1c-1.1,0-2,0.9-2,2c0,1.1,0.9,2,2,2h3.1
				c1.1,0,2-0.9,2-2C-170.8,76.7-171.7,75.8-172.8,75.8"/>
		</g>
		<g id="g916_1_" transform="matrix(0.24650865,0,0,-0.24650865,-83.294303,242.89516)">
			<path id="path918_1_" inkscape:connector-curvature="0" class="st0" d="M-180.6,141.2h-91.5c-1.1,0-2,0.9-2,2s0.9,2,2,2h91.4
				c1.1,0,2-0.9,2-2C-178.7,142.1-179.5,141.2-180.6,141.2"/>
		</g>
		<g id="g920_1_" transform="matrix(0.24650865,0,0,-0.24650865,-62.01343,242.89612)">
			<path id="path922_1_" inkscape:connector-curvature="0" class="st0" d="M-144.5,141.2L-144.5,141.2l-101.6,0.1c-1.1,0-2,0.9-2,2
				s0.9,2,2,2l101.6-0.1c1.1,0,2-0.9,2-2S-143.4,141.2-144.5,141.2"/>
		</g>
		<g id="g924_1_" transform="matrix(0.24650865,0,0,-0.24650865,-82.240257,242.89516)">
			<path id="path926_1_" inkscape:connector-curvature="0" class="st0" d="M-172.8,141.2h-3.1c-1.1,0-2,0.9-2,2s0.9,2,2,2h3.1
				c1.1,0,2-0.9,2-2S-171.7,141.2-172.8,141.2"/>
		</g>
	</g>
</g>
<g id="layer1_4_" transform="translate(-0.07352247,-97.490435)" inkscape:groupmode="layer" inkscape:label="Layer 1">
	<path d="M21.9,135.2c-0.4,0-0.6-0.2-0.8-0.4l-8.2-12l-8.3,12c-0.1,0.1-0.4,0.2-0.7,0.2c-0.5,0-1-0.4-1-1v-26.1c0-0.5,0.4-1,1-1
		c0.5,0,1,0.4,1,1V120h2.3v-12.1c0-0.5,0.4-1,1-1s1,0.4,1,1V120h3.5l8.7-12.7c0.2-0.1,0.5-0.3,0.8-0.3c0.2,0,0.3,0.1,0.5,0.2
		c0.3,0.3,0.4,0.4,0.4,0.7c0.1,0.3,0,0.5-0.2,0.7l-8.7,12.5l8.7,12.5c0.1,0.2,0.3,0.3,0,0.7c0,0.3-0.1,0.5-0.3,0.7l0,0
		c-0.2,0-0.2,0-0.3,0C22.1,135.1,22,135.2,21.9,135.2z M5.1,131.2l6.3-9.2H5.1V131.2z"/>
	<g>
		<path d="M32.4,135.1c-0.5,0-1-0.4-1-1v-12.8l-6.3-12.9c-0.2-0.5,0-1,0.4-1.2c0.2-0.1,0.3-0.1,0.4-0.1c0.3,0,0.6,0.2,0.8,0.5
			l6.5,12.9c0.1,0.2,0.2,0.3,0.1,0.6V134C33.4,134.6,32.9,135.1,32.4,135.1z"/>
		<path d="M36.5,135.2c-0.5,0-1-0.4-1-1v-12.8l-6.3-12.8c-0.2-0.5,0-1,0.4-1.2c0.2-0.1,0.3-0.1,0.4-0.1c0.3,0,0.6,0.2,0.8,0.5
			l5.5,11.3l5.6-11.4c0.1-0.4,0.5-0.5,0.8-0.5c0.2,0,0.3,0,0.4,0.1c0.4,0.2,0.6,0.7,0.5,1.4l-6.3,12.8v12.9
			C37.5,134.7,37,135.2,36.5,135.2z"/>
	</g>
	<path d="M58,135c-1.5,0-2.7-0.2-3.8-0.7h-0.1H54c-0.2,0.1-0.4,0.2-0.6,0.2c-3.8,0-5.8-1.8-6.5-2.6c-1.3-1.3-2.1-3.1-2.1-4.7v-12.4
		c0-1.6,0.8-3.4,2.1-4.7c0.9-1,2.8-2.6,6.5-2.6l0.2,0.1c0.2,0,0.3,0.1,0.4,0.2l0.1,0.1h0.1c1.1-0.5,2.4-0.7,3.8-0.7
		c3.7,0,5.8,1.5,7,2.8c1.4,1.4,2.2,3.2,2.2,5c0,0.2,0,0.3-0.1,0.4l-4,5.8l3.8,5.6c0.3,0.2,0.4,0.5,0.4,0.6c0,1.7-0.8,3.6-2.2,5
		c-1.9,1.8-4.2,2.7-7,2.7L58,135L58,135z M55.2,132.8l0.2,0.1c0.8,0.3,1.7,0.4,2.7,0.4c2.4,0,4.3-0.7,5.7-2.1c0.5-0.4,1-1.1,1.3-1.9
		c0-0.2,0.1-0.4,0.1-0.5c0.1-0.3,0.2-0.7,0.2-1l-3.3-4.8L55.2,132.8z M50.8,109.9c-1.2,0.4-2,1.1-2.5,1.5c-1,1.1-1.5,2.4-1.5,3.5
		v12.4c0,1.1,0.6,2.4,1.5,3.5c0.5,0.5,1.2,1.1,2.5,1.5l0.1-0.2c-1.2-1.3-2-3.1-2-4.8v-12.4c0-1.6,0.7-3.4,2-4.8l0.4-0.4L50.8,109.9z
		 M53.4,110.3c-0.1,0.1-0.3,0.2-0.4,0.3c-0.2,0.2-0.4,0.3-0.5,0.5c-0.6,0.6-1,1.2-1.3,1.9c-0.3,0.6-0.4,1.2-0.4,1.9v12.4
		c0,0.6,0.2,1.2,0.5,1.9c0.2,0.7,0.6,1.3,1.2,1.9c0.2,0.2,0.5,0.6,0.9,0.8l0.1,0.1l7.4-10.9l-7.5-10.9V110.3z M58.1,109
		c-1.2,0-2,0.1-2.7,0.4l-0.2,0.1l6.8,10l3.4-4.8v-0.1c-0.1-0.5-0.2-1-0.4-1.5c-0.2-0.5-0.6-1.2-1.2-1.9
		C63.2,110.5,61.5,109,58.1,109z"/>
	<path d="M79.1,135.2c-3.6,0-5.7-1.5-6.9-2.8c-1.4-1.4-2.2-3.2-2.2-5c0-0.5,0.4-1,1-1s1,0.4,1,1c0,0.6,0.1,1.2,0.4,1.9
		c0.3,0.7,0.7,1.3,1.2,1.8c0.9,1,2.6,2.1,5.6,2.1c1.5,0,2.8-0.3,3.9-0.8c0.7-0.3,1.2-0.6,1.6-1l0.1-0.1l-14.3-10.9
		c-0.2-0.3-0.2-0.4-0.2-0.7c0-1.2,0.4-2.4,1-3.4l0.1-0.1l-0.7-0.6l-0.1-0.1l-0.1-0.2l0,0v-0.1c0-0.1-0.1-0.2-0.1-0.3
		c0-1.7,0.8-3.6,2.2-5c1.9-1.8,4.2-2.7,7-2.7c2.9,0,5.2,0.9,7,2.7c1.4,1.4,2.2,3.2,2.2,5c0,0.5-0.4,1-1,1s-1-0.4-1-1
		s-0.2-1.2-0.4-1.8c-0.3-0.7-0.7-1.3-1.2-2c-0.9-1-2.6-2.2-5.7-2.2c-2.2,0-3.9,0.6-5.3,1.8l-0.1,0.1l14.1,10.7c0.1,0.1,0.1,1,0.1,1
		c0,1.2-0.4,2.4-1,3.4l-0.1,0.1l0.9,0.6v0.1c0.1,0.3,0.1,0.4,0.1,0.5c0,1.4-0.6,3-1.6,4.3c-0.9,1.1-1.9,1.9-2.9,2.4
		C82.5,134.8,81,135.2,79.1,135.2z M72.7,117.4c-0.2,0.6-0.4,1.2-0.5,1.7v0.1l13.9,10.5l0.1-0.1c0.3-0.5,0.5-1.1,0.6-1.7v-0.1
		l-14-10.6L72.7,117.4z M73.4,115.3l12.7,9.8l0.1-0.2c0.3-0.6,0.5-1.2,0.6-1.8V123L73,112.5l-0.1,0.2c-0.1,0.1-0.1,0.2-0.1,0.3
		c0,0.1,0,0.1-0.1,0.2c-0.2,0.5-0.3,0.9-0.4,1.3v0.1l0.1,0.1l0.7,0.5h0.2L73.4,115.3z"/>
</g>
</svg>
